<svg id="Ebene_1" data-name="Ebene 1" xmlns="http://www.w3.org/2000/svg" viewBox="0 0 1298.53 260.23"><defs><style>.cls-1{fill:#bb474e;}.cls-2{fill:#231f20;}.cls-3{fill:none;}</style></defs><title>campus_demokratie_logo</title><path class="cls-1" d="M549.05,113.5c10,0,15,3.87,16.86,5.59l-5.59,6.54c-2.32-2.24-5.68-4.47-12-4.47-9.89,0-15.65,7.22-15.65,23.22,0,15.14,5.59,23.39,16.43,23.39,5.93,0,9.37-2,11.44-4l4.82,6.11c-2.58,2.75-8.17,5.68-17.29,5.68-17.11,0-24.25-12.13-24.25-30.53C523.85,125.45,532.54,113.5,549.05,113.5Z" transform="translate(0 0)"/><path class="cls-1" d="M606.84,141.36V162c0,3.78,1.2,6.11,4.21,6.11h1.29v6.11a7.71,7.71,0,0,1-3.61.86c-4.64,0-7.4-2.41-8.6-5.59h-.34c-2.15,2.58-5.85,6-13.5,6-8.86,0-13.76-6.19-13.76-12.64,0-10.66,10.15-15.74,26.32-15.31v-4.73c0-7-3.44-9-9-9a10.8,10.8,0,0,0-10,5.59l-6.11-4.73c1.72-2.32,6.28-8.08,16.25-8.08C600.65,126.57,606.84,131,606.84,141.36Zm-8,12.47c-10.41-.52-17.89,2.06-17.89,8.26,0,3.7,2.67,6.71,7.48,6.71a12.55,12.55,0,0,0,10.41-5.59Z" transform="translate(0 0)"/><path class="cls-1" d="M669.62,126.31c9.29,0,14.53,5.25,14.53,15.74v32.59h-8.51v-31c0-6.79-3.27-10-8.34-10a10.78,10.78,0,0,0-10,7.14v33.8h-8.51V144.29c0-6.88-3-10.58-8.6-10.58a10.12,10.12,0,0,0-9.63,7.65v33.28h-8.51v-47.3h6.71l1.63,4.82h.34a14.84,14.84,0,0,1,12.3-5.85c7.14,0,10.58,3.18,12.3,7.22h.34C657.75,129.84,662.4,126.31,669.62,126.31Z" transform="translate(0 0)"/><path class="cls-1" d="M713.31,174.73a41.52,41.52,0,0,1-7.4-.69v17.29h-8.43v-64h6.28l1.81,4.56h.34c2.15-2.75,6-5.42,12-5.42,10.66,0,17.54,7.4,17.54,22.53C735.5,165.87,726.3,174.73,713.31,174.73Zm-.69-7.22c9.29,0,14.19-5.42,14.19-17.54s-5.42-16.34-11.27-16.34a11.16,11.16,0,0,0-9.72,5.68v27.09A22,22,0,0,0,712.62,167.51Z" transform="translate(0 0)"/><path class="cls-1" d="M746.25,127.35h8.51v30.79c0,7,3.1,10.41,9.29,10.41,6.36,0,10.49-4,10.84-9.72V127.35h8.51v47.3h-7l-1.38-4.73h-.34c-1.81,2.24-5.93,5.68-13.24,5.68-9.8,0-15-5.16-15.22-16.08Z" transform="translate(0 0)"/><path class="cls-1" d="M795.18,140.16c0-7.14,6-13.59,16.6-13.59,6.54,0,11.78,2.24,14.79,5.5l-5.5,5.68a13.44,13.44,0,0,0-9.54-4c-5.33,0-7.91,2.75-7.91,6,0,9.63,23.48,5.85,23.48,21.84,0,6.45-5.33,13.85-17.46,13.85-8.6,0-14.62-3.35-17.46-6.28l5.16-6.19a18.08,18.08,0,0,0,12.73,5.42c5.85,0,8.51-2.92,8.51-6.45C818.57,152.37,795.18,156.07,795.18,140.16Z" transform="translate(0 0)"/><path class="cls-2" d="M864.07,114.36h15.82c18.15,0,26.32,9.37,26.32,29.58,0,19.61-7.91,30.7-26.4,30.7H864.07Zm6.88,54.18h8.77c13.24,0,19.44-6.54,19.44-23.82,0-18-7.05-24.25-19.87-24.25h-8.34Z" transform="translate(0 0)"/><path class="cls-2" d="M951.36,171c-3.1,2.32-8,4.21-14.71,4.21-13.33,0-20.55-6.79-20.55-24.25,0-16.94,9.46-23.91,19.87-23.91,11.09,0,17,7.22,17,18.32a72.82,72.82,0,0,1-.52,8.08H922.72c.6,11.52,5.42,15.91,14.79,15.91a17.77,17.77,0,0,0,10.84-3.53ZM922.8,148h23.48c.09-.95.09-2.15.09-2.67,0-8-3.44-12.47-11-12.47C929.25,132.85,923.41,136.72,922.8,148Z" transform="translate(0 0)"/><path class="cls-2" d="M1010.7,126.92c9.29,0,14.45,5.25,14.45,15.48v32.25h-6.62V143.77c0-7.22-3.44-10.92-9.2-10.92a11.2,11.2,0,0,0-10.75,7.83v34h-6.71V144.29c0-7.4-3.27-11.44-9.29-11.44A10.86,10.86,0,0,0,972,141.19v33.45h-6.71V127.86h5.16l1.38,5h.34c1.29-2,4.82-5.93,12.13-5.93,7,0,10.66,3.18,12.38,7.4H997C998.83,130.53,1003.39,126.92,1010.7,126.92Z" transform="translate(0 0)"/><path class="cls-2" d="M1036.67,151.34c0-14.45,5.42-24.34,19.61-24.34s19.18,9.63,19.18,23.91c0,14.45-5.5,24.51-19.69,24.51S1036.67,165.7,1036.67,151.34Zm19.61,18.23c9,0,12.3-5.93,12.3-18.15,0-12.56-3.78-18.66-12.81-18.66-8.86,0-12.21,5.93-12.21,18.06C1043.55,163.38,1047.33,169.57,1056.28,169.57Z" transform="translate(0 0)"/><path class="cls-2" d="M1093.94,174.64h-6.71V109.37h6.71Zm1.29-24.34L1112,127.86h8.34l-17.29,22.27v.34l18.32,24.17h-8.51l-17.63-24Z" transform="translate(0 0)"/><path class="cls-2" d="M1153.71,134.48a18.34,18.34,0,0,0-5.25-.69c-4.56,0-9.29,1.81-11.52,6v34.83h-6.62V127.86h5.07l1.46,5.16h.34c2.06-3.35,6.36-5.93,11.78-5.93a20.46,20.46,0,0,1,4.73.43Z" transform="translate(0 0)"/><path class="cls-2" d="M1190,141.36v21.16c0,4.21,1.29,7.05,4.56,7.05h1.2v4.9a5.24,5.24,0,0,1-2.41.52c-4.64,0-7.4-2.49-8.51-5.68h-.34c-2.24,2.58-6,6.28-13.93,6.28-8.69,0-13.5-6.11-13.5-12.47,0-10.32,10.15-15.39,26.75-15.14v-5.07c0-7.65-3.7-9.89-9.89-9.89s-9.29,3.44-10.66,5.68l-4.9-3.87c1.63-2.24,6-7.65,15.74-7.65C1184.07,127.17,1190,131.56,1190,141.36Zm-6.19,11.87c-11.27-.43-20.12,2.32-20.12,9.37,0,4.13,3,7.48,8.43,7.48a14.44,14.44,0,0,0,11.7-6.36Z" transform="translate(0 0)"/><path class="cls-2" d="M1208,162.17v-28.9h-7V129l7-1.29,2.06-12.13h4.56v12.3h12.9v5.42h-12.9v28.55c0,5.25,2.67,7.4,6.79,7.4,3.78,0,5.93-.86,7.14-1.63l1.89,5.33c-1.81,1-4.9,2.15-10.49,2.15C1212.19,175.07,1208,171,1208,162.17Z" transform="translate(0 0)"/><path class="cls-2" d="M1244.44,109.29a4.86,4.86,0,1,1,0,9.72,4.86,4.86,0,0,1,0-9.72Zm-2.92,18.58h6.71v46.78h-6.71Z" transform="translate(0 0)"/><path class="cls-2" d="M1296.9,171c-3.1,2.32-8,4.21-14.71,4.21-13.33,0-20.55-6.79-20.55-24.25,0-16.94,9.46-23.91,19.87-23.91,11.09,0,17,7.22,17,18.32a72.82,72.82,0,0,1-.52,8.08h-29.76c.6,11.52,5.42,15.91,14.79,15.91a17.77,17.77,0,0,0,10.84-3.53Zm-28.55-23h23.48c.09-.95.09-2.15.09-2.67,0-8-3.44-12.47-11-12.47C1274.8,132.85,1268.95,136.72,1268.35,148Z" transform="translate(0 0)"/><path class="cls-2" d="M978.94,240.32c0-8.55-16.85-6.5-16.85-17.55,0-5.2,4.35-9.15,10.45-9.15a14,14,0,0,1,8.6,2.6l-1.85,2.45a11,11,0,0,0-6.9-2.2c-4.55,0-7.25,2.55-7.25,6.15,0,8.75,16.85,6.8,16.85,17.55,0,5.3-4.15,9.5-11.3,9.5a16.17,16.17,0,0,1-10.65-3.5l1.85-2.4a13.88,13.88,0,0,0,9,3C976.09,246.82,978.94,244,978.94,240.32Z" transform="translate(0 0)"/><path class="cls-2" d="M990.34,242.42v-17.7h-4.15v-1.9l4.15-.6.8-7.15h2.1v7.15h7.6v2.5h-7.6v17.35c0,3.35,1.65,4.7,4.2,4.7a7.89,7.89,0,0,0,4.25-.9l.85,2.45a11.83,11.83,0,0,1-5.6,1.1C992.54,249.43,990.34,247.07,990.34,242.42Z" transform="translate(0 0)"/><path class="cls-2" d="M1011.54,211.72a2.42,2.42,0,1,1-2.4,2.45A2.39,2.39,0,0,1,1011.54,211.72Zm-1.2,10.5h2.9v27h-2.9Z" transform="translate(0 0)"/><path class="cls-2" d="M1035.94,214.12a10.9,10.9,0,0,0-3.8-.5c-2.7,0-3.8,1.3-3.8,3.85v4.75h7.3v2.5h-7.3v24.45h-2.9V224.72h-4.6v-2.5h4.6v-4.65c0-4,2.3-6.6,7.15-6.6a11.72,11.72,0,0,1,4,.6Z" transform="translate(0 0)"/><path class="cls-2" d="M1042.59,242.42v-17.7h-4.15v-1.9l4.15-.6.8-7.15h2.1v7.15h7.6v2.5h-7.6v17.35c0,3.35,1.65,4.7,4.2,4.7a7.89,7.89,0,0,0,4.25-.9l.85,2.45a11.83,11.83,0,0,1-5.6,1.1C1044.79,249.43,1042.59,247.07,1042.59,242.42Z" transform="translate(0 0)"/><path class="cls-2" d="M1060.84,222.22h2.9v17.7c0,4.8,2,7.1,6.5,7.1,4,0,7.35-2.15,7.35-7.4v-17.4h2.9v27h-2.15l-.65-2.9h-.2c-.55.8-3.05,3.45-7.85,3.45-5.45,0-8.65-2.9-8.8-9Z" transform="translate(0 0)"/><path class="cls-2" d="M1109.39,249.18h-2.9V231.32c0-4.45-2.25-6.9-6.35-6.9a8,8,0,0,0-7.5,5.25v19.5h-2.9v-27h2.15l.65,3h.2a10.08,10.08,0,0,1,7.8-3.45c5.4,0,8.7,3,8.85,8.9Z" transform="translate(0 0)"/><path class="cls-2" d="M1137.19,249.78c0,7-4.15,10.45-10.75,10.45-4.65,0-7.3-1.75-8.3-2.6l1.7-2.5c1.35,1.2,3.35,2.4,7.2,2.4,5.2,0,7.3-2.65,7.3-7.75V247h-.2a10.78,10.78,0,0,1-7,2.3c-5.5,0-10.15-3.65-10.15-12.65s4.2-14.6,13.1-14.6a16.39,16.39,0,0,1,7.05,1.35Zm-7.7-25.05c-5.6,0-9.45,3.65-9.45,11.35,0,8.35,4,10.55,8,10.55a8,8,0,0,0,6.25-3V225.57A12.71,12.71,0,0,0,1129.49,224.72Z" transform="translate(0 0)"/><path class="cls-2" d="M1162,214.12h8.75c10.3,0,15,5.4,15,17.3,0,12.1-4.9,17.75-15.1,17.75H1162Zm3,32.2h5.75c7.85,0,11.85-3.6,11.85-14.5S1178.39,217,1170.49,217H1165Z" transform="translate(0 0)"/><path class="cls-2" d="M1196.69,211.72a2.42,2.42,0,1,1-2.4,2.45A2.39,2.39,0,0,1,1196.69,211.72Zm-1.2,10.5h2.9v27h-2.9Z" transform="translate(0 0)"/><path class="cls-2" d="M1225.74,229.82v12.6c0,2.65.8,4.55,2.85,4.55h.65v2.25a3.15,3.15,0,0,1-.8.1,4.81,4.81,0,0,1-4.9-3.35h-.2a10.14,10.14,0,0,1-8.3,3.75c-5,0-7.75-3.5-7.75-7.05,0-5.9,6-8.85,15.75-8.75v-3.15c0-4.8-2.25-6.2-6.2-6.2a7.38,7.38,0,0,0-6.55,3.35l-2.15-1.8a10.28,10.28,0,0,1,8.85-4.25C1222.44,221.87,1225.74,224.42,1225.74,229.82Zm-2.7,6.6c-7-.2-12.8,1.5-12.8,6,0,2.65,1.9,4.8,5.35,4.8a9,9,0,0,0,7.45-4.15Z" transform="translate(0 0)"/><path class="cls-2" d="M1239.79,211.22v32.15c0,2.5.75,3.6,3,3.6a5.46,5.46,0,0,0,2.6-.65v2.6a9.14,9.14,0,0,1-3.35.6c-3.55,0-5.1-2.1-5.1-5.35v-33Z" transform="translate(0 0)"/><path class="cls-2" d="M1249.69,235.77c0-8.35,3-14.05,11-14.05s10.7,5.55,10.7,13.75c0,8.35-3,14.1-11,14.1S1249.69,244,1249.69,235.77Zm11,11.1c5.6,0,7.7-3.65,7.7-11.1,0-7.65-2.4-11.35-8-11.35s-7.7,3.6-7.7,11.05C1252.69,243.12,1255.09,246.87,1260.69,246.87Z" transform="translate(0 0)"/><path class="cls-2" d="M1297.89,249.78c0,7-4.15,10.45-10.75,10.45-4.65,0-7.3-1.75-8.3-2.6l1.7-2.5c1.35,1.2,3.35,2.4,7.2,2.4,5.2,0,7.3-2.65,7.3-7.75V247h-.2a10.78,10.78,0,0,1-7,2.3c-5.5,0-10.15-3.65-10.15-12.65s4.2-14.6,13.1-14.6a16.39,16.39,0,0,1,7.05,1.35Zm-7.7-25.05c-5.6,0-9.45,3.65-9.45,11.35,0,8.35,4,10.55,8,10.55a8,8,0,0,0,6.25-3V225.57A12.71,12.71,0,0,0,1290.19,224.72Z" transform="translate(0 0)"/><rect class="cls-1" x="519.92" y="0.5" width="56.41" height="57.51"/><path class="cls-1" d="M575.83,1V57.51H520.42V1h55.41m1-1H519.42V58.51h57.41V0Z" transform="translate(0 0)"/><rect class="cls-1" x="411.43" y="0.5" width="56.41" height="57.51"/><path class="cls-1" d="M467.34,1V57.51H411.93V1h55.41m1-1H410.93V58.51h57.41V0Z" transform="translate(0 0)"/><rect class="cls-1" x="411.43" y="109.01" width="56.41" height="57.51"/><path class="cls-1" d="M467.34,109.51V166H411.93V109.51h55.41m1-1H410.93V167h57.41V108.51Z" transform="translate(0 0)"/><rect class="cls-3" x="519.42" y="108.51" width="57.41" height="58.51"/><rect class="cls-1" x="312.5" y="11.68" width="37.27" height="38.01"/><path class="cls-1" d="M349.28,12.18v37H313v-37h36.27m1-1H312v39h38.27v-39Z" transform="translate(0 0)"/><rect class="cls-1" x="357.09" y="59.48" width="46.84" height="47.76"/><path class="cls-1" d="M403.43,60v46.76H357.59V60h45.84m1-1H356.59v48.76h47.84V59Z" transform="translate(0 0)"/><rect class="cls-1" x="210.39" y="18.18" width="24.52" height="25.01"/><path class="cls-1" d="M234.41,18.68v24H210.89v-24h23.52m1-1H209.89v26h25.52v-26Z" transform="translate(0 0)"/><rect class="cls-1" x="257.67" y="67.61" width="30.89" height="31.51"/><path class="cls-1" d="M288.06,68.11V98.62H258.17V68.11h29.89m1-1H257.17V99.62h31.89V67.11Z" transform="translate(0 0)"/><rect class="cls-1" x="210.39" y="126.69" width="24.52" height="25.01"/><path class="cls-1" d="M234.41,127.19v24H210.89v-24h23.52m1-1H209.89v26h25.52v-26Z" transform="translate(0 0)"/><rect class="cls-1" x="312.5" y="120.19" width="37.27" height="38.01"/><path class="cls-1" d="M349.28,120.69v37H313v-37h36.27m1-1H312v39h38.27v-39Z" transform="translate(0 0)"/><rect class="cls-1" x="106.16" y="23.28" width="16.01" height="16.33"/><path class="cls-1" d="M121.66,23.78V39.12h-15V23.78h15m1-1h-17V40.12h17V22.78Z" transform="translate(0 0)"/><rect class="cls-1" x="0.5" y="26.17" width="10.34" height="10.56"/><path class="cls-1" d="M10.34,26.67v9.56H1V26.67h9.34m1-1H0V37.23H11.34V25.67Z" transform="translate(0 0)"/><rect class="cls-1" x="51.74" y="76.64" width="13.17" height="13.45"/><path class="cls-1" d="M64.41,77.14V89.59H52.24V77.14H64.41m1-1H51.24V90.59H65.41V76.14Z" transform="translate(0 0)"/><rect class="cls-1" x="0.5" y="134.69" width="10.34" height="10.56"/><path class="cls-1" d="M10.34,135.19v9.56H1v-9.56h9.34m1-1H0v11.56H11.34V134.19Z" transform="translate(0 0)"/><rect class="cls-1" x="106.16" y="131.8" width="16.01" height="16.33"/><path class="cls-1" d="M121.66,132.3v15.33h-15V132.3h15m1-1h-17v17.33h17V131.3Z" transform="translate(0 0)"/><rect class="cls-1" x="155.59" y="73.03" width="20.26" height="20.67"/><path class="cls-1" d="M175.35,73.53V93.2H156.09V73.53h19.26m1-1H155.09V94.2h21.26V72.53Z" transform="translate(0 0)"/><text></text></svg>