<svg id="Calque_1" data-name="Calque 1" xmlns="http://www.w3.org/2000/svg" viewBox="0 0 288.64 405"><path d="M65.82,359.5v-38A1.2,1.2,0,0,1,67,320.39H79a11.45,11.45,0,0,1,4.85,1,12.27,12.27,0,0,1,3.88,2.76,15.07,15.07,0,0,1,2.73,4.06,15.72,15.72,0,0,1,1.35,4.89,61.23,61.23,0,0,1,0,14.82,15.72,15.72,0,0,1-1.35,4.89,15.07,15.07,0,0,1-2.73,4.06,12.27,12.27,0,0,1-3.88,2.76,11.45,11.45,0,0,1-4.85,1H67a1.2,1.2,0,0,1-1.14-1.15ZM73.87,352a.5.5,0,0,0,.57.56H79a4.2,4.2,0,0,0,3.26-1.37,5.84,5.84,0,0,0,1.46-3.29,61.23,61.23,0,0,0,0-14.82,5.84,5.84,0,0,0-1.46-3.29A4.2,4.2,0,0,0,79,328.45h-4.6c-.38,0-.57.19-.57.59Z" transform="translate(-65.68 -5)" style="fill:#e32c2c"/><path d="M98.64,359.5v-38a1.11,1.11,0,0,1,.35-.8,1.09,1.09,0,0,1,.8-.35h20.89a1.05,1.05,0,0,1,.79.35,1.13,1.13,0,0,1,.33.8v5.75a1.11,1.11,0,0,1-.33.8,1.06,1.06,0,0,1-.79.36H107.26c-.38,0-.56.19-.56.59v6.87a.52.52,0,0,0,.56.59H120.2a1.14,1.14,0,0,1,.8.34,1.09,1.09,0,0,1,.36.82v5.75a1.14,1.14,0,0,1-.34.8,1.08,1.08,0,0,1-.82.35H107.26a.49.49,0,0,0-.56.56V352a.49.49,0,0,0,.56.56h13.65a1.22,1.22,0,0,1,1.15,1.15v5.76a1.2,1.2,0,0,1-1.15,1.15H99.79a1.09,1.09,0,0,1-.8-.35A1.11,1.11,0,0,1,98.64,359.5Z" transform="translate(-65.68 -5)" style="fill:#e32c2c"/><path d="M128.06,359.5v-38a1.08,1.08,0,0,1,.36-.8,1.07,1.07,0,0,1,.79-.35h8.51a1.13,1.13,0,0,1,1.21,1l5.87,25.19a.36.36,0,0,0,.7,0l6.09-25.19a1.13,1.13,0,0,1,1.21-1h8.45a1.2,1.2,0,0,1,1.15,1.15v38a1.2,1.2,0,0,1-1.15,1.15H156.2a1.07,1.07,0,0,1-.8-.35,1.11,1.11,0,0,1-.35-.8V337.82a.3.3,0,0,0-.21-.33c-.14,0-.25,0-.33.22l-5.86,22a1.13,1.13,0,0,1-1.21,1h-4.52a1.17,1.17,0,0,1-1.24-1l-5.73-22c-.07-.18-.18-.26-.32-.22a.3.3,0,0,0-.21.33V359.5a1.1,1.1,0,0,1-.34.8,1,1,0,0,1-.81.35h-5.06a1.07,1.07,0,0,1-.79-.35A1.08,1.08,0,0,1,128.06,359.5Z" transform="translate(-65.68 -5)" style="fill:#e32c2c"/><path d="M168.82,344.74c-.08-1.39-.13-2.79-.13-4.22s0-2.82.12-4.18.19-2.65.36-3.89a15.65,15.65,0,0,1,1.34-4.88,14.18,14.18,0,0,1,2.8-4,13,13,0,0,1,4.13-2.75,13.76,13.76,0,0,1,5.36-1,13.61,13.61,0,0,1,5.35,1,13.1,13.1,0,0,1,4.13,2.75,13.82,13.82,0,0,1,2.81,4,15.66,15.66,0,0,1,1.35,4.88c.15,1.24.25,2.54.32,3.89s.1,2.75.1,4.18,0,2.83-.09,4.2a37.27,37.27,0,0,1-.33,3.87,15.74,15.74,0,0,1-1.35,4.88,14,14,0,0,1-2.81,4,13,13,0,0,1-4.13,2.77,13.61,13.61,0,0,1-5.35,1,13.76,13.76,0,0,1-5.36-1,12.87,12.87,0,0,1-4.13-2.77,14.37,14.37,0,0,1-2.8-4,15.72,15.72,0,0,1-1.34-4.88C169,347.41,168.9,346.13,168.82,344.74Zm8.05-8.41c-.08,1.37-.12,2.76-.12,4.19s0,2.83.12,4.22.18,2.67.33,3.87a5.4,5.4,0,0,0,1.59,3.28,5.48,5.48,0,0,0,4,1.35,5.42,5.42,0,0,0,4-1.35,5.59,5.59,0,0,0,1.61-3.28c.15-1.18.25-2.47.3-3.86s.09-2.8.09-4.23,0-2.82-.09-4.19-.15-2.66-.3-3.91a5.36,5.36,0,0,0-1.6-3.25,5.5,5.5,0,0,0-4-1.34,5.41,5.41,0,0,0-4,1.35,5.57,5.57,0,0,0-1.61,3.24C177.05,333.67,176.94,335,176.87,336.33Z" transform="translate(-65.68 -5)" style="fill:#e32c2c"/><path d="M202.26,344.74c-.08-1.39-.12-2.79-.12-4.22s0-2.82.11-4.18.19-2.65.36-3.89a15.66,15.66,0,0,1,1.35-4.88,14,14,0,0,1,2.79-4,12.94,12.94,0,0,1,4.12-2.75,13.72,13.72,0,0,1,5.38-1,15.1,15.1,0,0,1,5.5,1,13.4,13.4,0,0,1,4.34,2.7,12,12,0,0,1,2.84,4.13,13.29,13.29,0,0,1,1,5.3v.06a1.11,1.11,0,0,1-.34.8,1.08,1.08,0,0,1-.81.35h-5.75a1.22,1.22,0,0,1-1.16-1.16v-.06a4.41,4.41,0,0,0-.38-1.77,5.42,5.42,0,0,0-1.09-1.63,5.52,5.52,0,0,0-1.76-1.19,6.11,6.11,0,0,0-2.42-.45,5.42,5.42,0,0,0-4,1.35,5.5,5.5,0,0,0-1.6,3.24c-.16,1.25-.27,2.55-.34,3.91s-.12,2.76-.12,4.19,0,2.83.12,4.22.18,2.67.34,3.87a5.39,5.39,0,0,0,1.58,3.28,5.5,5.5,0,0,0,4,1.35,5.89,5.89,0,0,0,2.3-.44,6,6,0,0,0,1.79-1.13,5,5,0,0,0,1.15-1.6,4.3,4.3,0,0,0,.41-1.82v-.05a1.24,1.24,0,0,1,.34-.84,1,1,0,0,1,.82-.38h5.75a1.11,1.11,0,0,1,.8.34,1.08,1.08,0,0,1,.35.81v.06a13.25,13.25,0,0,1-1,5.27,12.18,12.18,0,0,1-2.84,4.14,13.11,13.11,0,0,1-4.34,2.72,15.1,15.1,0,0,1-5.5,1,13.78,13.78,0,0,1-5.37-1,12.87,12.87,0,0,1-4.13-2.77,14.13,14.13,0,0,1-2.79-4,15.74,15.74,0,0,1-1.35-4.88C202.46,347.41,202.34,346.13,202.26,344.74Z" transform="translate(-65.68 -5)" style="fill:#e32c2c"/><path d="M236,359.5v-38a1.2,1.2,0,0,1,1.15-1.15h12.66a11.76,11.76,0,0,1,4.68.95,12.35,12.35,0,0,1,3.84,2.6,12.22,12.22,0,0,1,2.6,3.85,11.58,11.58,0,0,1,1,4.67,10.89,10.89,0,0,1-1.45,5.73,14.65,14.65,0,0,1-4.54,4.46c-.42.3-.64.59-.64.86a2.74,2.74,0,0,0,.28,1.05l6.18,14.38a1.36,1.36,0,0,1,0,1.18,1.13,1.13,0,0,1-1.11.53H254.7a1.59,1.59,0,0,1-1.07-.32,2.82,2.82,0,0,1-.62-.83l-5.87-14.21a1.84,1.84,0,0,0-.33-.47.87.87,0,0,0-.68-.26h-1.51a.49.49,0,0,0-.56.56V359.5a1.08,1.08,0,0,1-.36.8,1.06,1.06,0,0,1-.8.35h-5.75A1.2,1.2,0,0,1,236,359.5Zm8.06-23.59a.52.52,0,0,0,.56.59h5.19a3.89,3.89,0,0,0,2.84-1.17,4,4,0,0,0,1.18-2.87,4,4,0,0,0-4-4h-5.19c-.38,0-.56.19-.56.59Z" transform="translate(-65.68 -5)" style="fill:#e32c2c"/><path d="M264.66,359.5,275,321.26a1,1,0,0,1,1.1-.87h7.69a1,1,0,0,1,1.09.87L295.1,359.5a.91.91,0,0,1,0,.23.77.77,0,0,1-.19.53,1.15,1.15,0,0,1-1,.39h-6a1.09,1.09,0,0,1-1.09-.87l-1.8-5.92a2.31,2.31,0,0,0-.28-.59.65.65,0,0,0-.59-.25h-8.73c-.47,0-.76.27-.87.84l-1.6,5.92a1,1,0,0,1-1.1.87h-6a1.11,1.11,0,0,1-1-.39.9.9,0,0,1-.2-.53A1.79,1.79,0,0,1,264.66,359.5Zm12.08-15.19a1.21,1.21,0,0,0,0,.25c0,.27.17.4.51.4h5.27c.34,0,.51-.13.51-.4a.65.65,0,0,0-.06-.25l-2.75-13.79a.26.26,0,0,0-.28-.22h-.11a.26.26,0,0,0-.28.22Z" transform="translate(-65.68 -5)" style="fill:#e32c2c"/><path d="M296.24,344.74c-.08-1.39-.13-2.79-.13-4.22s0-2.82.11-4.18.2-2.65.37-3.89a15.65,15.65,0,0,1,1.34-4.88,14,14,0,0,1,2.8-4,12.94,12.94,0,0,1,4.12-2.75,13.64,13.64,0,0,1,5.37-1,15.16,15.16,0,0,1,5.51,1,13.24,13.24,0,0,1,4.33,2.7,11.93,11.93,0,0,1,2.85,4.13,13.29,13.29,0,0,1,1,5.3v.06a1.18,1.18,0,0,1-1.16,1.15H317a1.13,1.13,0,0,1-.81-.35,1.15,1.15,0,0,1-.35-.81v-.06a4.59,4.59,0,0,0-.38-1.77,5.27,5.27,0,0,0-1.1-1.63,5.41,5.41,0,0,0-1.76-1.19,6,6,0,0,0-2.42-.45,5.41,5.41,0,0,0-4,1.35,5.57,5.57,0,0,0-1.61,3.24c-.15,1.25-.26,2.55-.34,3.91s-.11,2.76-.11,4.19,0,2.83.11,4.22.19,2.67.34,3.87a5.4,5.4,0,0,0,1.59,3.28,5.48,5.48,0,0,0,4,1.35,5.91,5.91,0,0,0,2.31-.44,6.13,6.13,0,0,0,1.79-1.13,5,5,0,0,0,1.15-1.6,4.45,4.45,0,0,0,.41-1.82v-.05a1.24,1.24,0,0,1,.34-.84A1,1,0,0,1,317,347h5.74a1.14,1.14,0,0,1,.81.34,1.08,1.08,0,0,1,.35.81v.06a13.25,13.25,0,0,1-1,5.27,12.06,12.06,0,0,1-2.85,4.14,13,13,0,0,1-4.33,2.72,15.16,15.16,0,0,1-5.51,1,13.73,13.73,0,0,1-5.36-1,12.76,12.76,0,0,1-4.13-2.77,14.16,14.16,0,0,1-2.8-4,15.72,15.72,0,0,1-1.34-4.88C296.44,347.41,296.32,346.13,296.24,344.74Z" transform="translate(-65.68 -5)" style="fill:#e32c2c"/><path d="M325.09,322a1.37,1.37,0,0,1-.14-.59,1,1,0,0,1,.17-.54,1,1,0,0,1,.87-.5h6.34a1.09,1.09,0,0,1,1.1.87l5.5,15.92c.08.18.19.29.35.29s.28-.08.35-.29l5.51-15.92a1.09,1.09,0,0,1,1.09-.87h6.35a1.06,1.06,0,0,1,.9.5,1,1,0,0,1,.14.54,1.53,1.53,0,0,1-.14.59l-10.17,25.63V359.5a1.11,1.11,0,0,1-.35.8,1.07,1.07,0,0,1-.8.35H336.4a1.07,1.07,0,0,1-.79-.35,1.08,1.08,0,0,1-.36-.8V347.65Z" transform="translate(-65.68 -5)" style="fill:#e32c2c"/><path d="M65.82,408.4v-38A1.2,1.2,0,0,1,67,369.29H79a11.45,11.45,0,0,1,4.85,1,12.27,12.27,0,0,1,3.88,2.76,15.07,15.07,0,0,1,2.73,4.06A15.65,15.65,0,0,1,91.82,382a61.23,61.23,0,0,1,0,14.82,15.72,15.72,0,0,1-1.35,4.89,15.07,15.07,0,0,1-2.73,4.06,12.27,12.27,0,0,1-3.88,2.76,11.6,11.6,0,0,1-4.85,1H67a1.2,1.2,0,0,1-1.14-1.15Zm8.05-7.47a.5.5,0,0,0,.57.56H79a4.2,4.2,0,0,0,3.26-1.37,5.87,5.87,0,0,0,1.46-3.29,61.23,61.23,0,0,0,0-14.82,5.84,5.84,0,0,0-1.46-3.29A4.17,4.17,0,0,0,79,377.34h-4.6a.51.51,0,0,0-.57.59Z" transform="translate(-65.68 -5)" style="fill:#e32c2c"/><path d="M94,408.4l10.3-38.24a1,1,0,0,1,1.1-.87h7.69a1,1,0,0,1,1.1.87l10.25,38.24a1.64,1.64,0,0,1,0,.22.73.73,0,0,1-.19.54,1.15,1.15,0,0,1-1,.39h-6a1.09,1.09,0,0,1-1.1-.87l-1.8-5.92a1.9,1.9,0,0,0-.28-.59.65.65,0,0,0-.59-.26h-8.73c-.47,0-.76.28-.87.85l-1.6,5.92a1,1,0,0,1-1.09.87h-6a1.11,1.11,0,0,1-1-.39.91.91,0,0,1-.2-.54A.83.83,0,0,1,94,408.4Zm12.07-15.19a1.21,1.21,0,0,0,0,.25q0,.39.51.39h5.28c.34,0,.5-.13.5-.39a.85.85,0,0,0,0-.25l-2.76-13.79a.26.26,0,0,0-.28-.22h-.11a.26.26,0,0,0-.28.22Z" transform="translate(-65.68 -5)" style="fill:#e32c2c"/><path d="M122.34,370.92a1.37,1.37,0,0,1-.14-.59.91.91,0,0,1,.17-.54,1,1,0,0,1,.87-.5h6.34a1.09,1.09,0,0,1,1.1.87l5.5,15.92a.41.41,0,0,0,.35.29c.16,0,.28-.09.35-.29l5.51-15.92a1.08,1.08,0,0,1,1.09-.87h6.35a1,1,0,0,1,.89.5,1,1,0,0,1,.15.54,1.39,1.39,0,0,1-.15.59l-10.16,25.63V408.4a1.11,1.11,0,0,1-.35.8,1.07,1.07,0,0,1-.8.35h-5.76a1.09,1.09,0,0,1-.8-.35,1.11,1.11,0,0,1-.35-.8V396.55Z" transform="translate(-65.68 -5)" style="fill:#e32c2c"/><path d="M166.53,383.55V380a2.57,2.57,0,0,1,.62-1.88l8.73-8.34a1.65,1.65,0,0,1,1.15-.53h3.55a1.2,1.2,0,0,1,1.14,1.15v38a1.13,1.13,0,0,1-.33.8,1.08,1.08,0,0,1-.81.35h-3a1.05,1.05,0,0,1-.79-.35,1.07,1.07,0,0,1-.35-.8V376.84c0-.19-.07-.3-.2-.32a.37.37,0,0,0-.34.07L167.8,384a.79.79,0,0,1-.83.17A.65.65,0,0,1,166.53,383.55Z" transform="translate(-65.68 -5)" style="fill:#e32c2c"/><path d="M188.29,399.5a1,1,0,0,1,.36-.86,1.24,1.24,0,0,1,.81-.29h3a1.13,1.13,0,0,1,.8.33,1.09,1.09,0,0,1,.36.82,4.27,4.27,0,0,0,.55,2.17,5.42,5.42,0,0,0,1.43,1.66,7.11,7.11,0,0,0,2.06,1.1,7.49,7.49,0,0,0,2.45.4,5.79,5.79,0,0,0,5-2.41,10,10,0,0,0,1.75-6,9.84,9.84,0,0,0-1.78-6.06,5.84,5.84,0,0,0-4.95-2.39,5.28,5.28,0,0,0-3.14,1,6.22,6.22,0,0,0-2,2.47,1,1,0,0,1-1.1.62h-3.11a1.13,1.13,0,0,1-.8-.33,1.08,1.08,0,0,1-.35-.82V370.44a1.2,1.2,0,0,1,1.15-1.15h18.58a1.2,1.2,0,0,1,1.16,1.14v2.88a1.06,1.06,0,0,1-.36.79,1.11,1.11,0,0,1-.82.35H195a.53.53,0,0,0-.59.57v8.64a.8.8,0,0,0,.33.69q.31.24,1-.21a5.75,5.75,0,0,1,2.18-1,9.32,9.32,0,0,1,2.18-.34,10.81,10.81,0,0,1,4.86,1.09,11.18,11.18,0,0,1,3.73,3,13.46,13.46,0,0,1,2.37,4.35,16.4,16.4,0,0,1,.83,5.22,16.87,16.87,0,0,1-.8,5.22,13.17,13.17,0,0,1-2.34,4.36,11.41,11.41,0,0,1-3.73,3,11,11,0,0,1-4.92,1.08,12.37,12.37,0,0,1-4.42-.8,12.77,12.77,0,0,1-3.75-2.2,10.93,10.93,0,0,1-2.64-3.33A9,9,0,0,1,188.29,399.5Z" transform="translate(-65.68 -5)" style="fill:#e32c2c"/><path d="M218.56,408.4v-5.17a1.11,1.11,0,0,1,.34-.8,1.08,1.08,0,0,1,.81-.35h5.17a1.18,1.18,0,0,1,1.15,1.15v5.17a1.11,1.11,0,0,1-.35.8,1.07,1.07,0,0,1-.8.35h-5.17a1.09,1.09,0,0,1-.8-.35A1.11,1.11,0,0,1,218.56,408.4Z" transform="translate(-65.68 -5)" style="fill:#e32c2c"/><path d="M232.74,394.05c-.08-1.51-.11-3.07-.11-4.66s0-3.13.11-4.63.19-2.82.34-4a16.64,16.64,0,0,1,1.18-4.52,12.47,12.47,0,0,1,2.44-3.82,11.44,11.44,0,0,1,3.71-2.64,11.93,11.93,0,0,1,5-1,11.52,11.52,0,0,1,8.45,3.18,14.41,14.41,0,0,1,3.93,8.78c.15,1.14.26,2.47.31,4s.09,3.06.09,4.63,0,3.12-.12,4.63-.17,2.85-.28,4a17,17,0,0,1-1.18,4.55,12.64,12.64,0,0,1-2.41,3.83,11,11,0,0,1-3.74,2.61,12.4,12.4,0,0,1-5,1,11.46,11.46,0,0,1-8.44-3.19,14.42,14.42,0,0,1-3.91-8.77C232.93,396.9,232.82,395.57,232.74,394.05Zm5.17-9.17c-.08,1.49-.12,3-.12,4.57s0,3.08.12,4.57.18,2.84.33,4a11.49,11.49,0,0,0,.66,2.51,6.55,6.55,0,0,0,1.39,2.19,6.85,6.85,0,0,0,2.16,1.52,7.23,7.23,0,0,0,3,.57,6.72,6.72,0,0,0,4.83-1.81,8.21,8.21,0,0,0,2.36-5c.15-1.18.27-2.52.38-4s.15-3,.15-4.57,0-3.08-.14-4.57-.22-2.85-.39-4.08a10.72,10.72,0,0,0-.65-2.5,7,7,0,0,0-1.34-2.19,6.26,6.26,0,0,0-2.17-1.53,7.44,7.44,0,0,0-3-.58,6.9,6.9,0,0,0-4.82,1.79,7.91,7.91,0,0,0-2.37,5C238.09,382,238,383.4,237.91,384.88Z" transform="translate(-65.68 -5)" style="fill:#e32c2c"/><path d="M262.46,383.52a21.14,21.14,0,0,1,0-3,12.78,12.78,0,0,1,1.06-4.56,11.85,11.85,0,0,1,6.22-6.21,11,11,0,0,1,4.52-.93,11.31,11.31,0,0,1,4.57.92,11.66,11.66,0,0,1,3.67,2.56,13.82,13.82,0,0,1,2.56,3.82,16,16,0,0,1,1.31,4.67c.15,1.14.25,2.47.31,4s.08,3.06.08,4.63,0,3.12-.11,4.64-.17,2.84-.28,4a16.11,16.11,0,0,1-1.24,4.66,13.17,13.17,0,0,1-2.49,3.8,11.71,11.71,0,0,1-3.61,2.55,10.83,10.83,0,0,1-4.55.94,11.81,11.81,0,0,1-4.44-.85,12.12,12.12,0,0,1-3.74-2.33,11.18,11.18,0,0,1-2.56-3.47,9.76,9.76,0,0,1-1-4.29,1.08,1.08,0,0,1,.36-.8,1.11,1.11,0,0,1,.8-.35l3,0a1.2,1.2,0,0,1,1.16,1.15,4.52,4.52,0,0,0,.55,2.14,6.75,6.75,0,0,0,1.44,1.86,7,7,0,0,0,2.05,1.32,5.86,5.86,0,0,0,2.35.49,6,6,0,0,0,4.61-1.83,10.14,10.14,0,0,0,2.34-4.94,24.82,24.82,0,0,0,.39-4.76.49.49,0,0,0-.32-.51.74.74,0,0,0-.71.17,13.78,13.78,0,0,1-2.63,1.55,9,9,0,0,1-3.9.83,11.28,11.28,0,0,1-8.19-3.44,12.69,12.69,0,0,1-2.5-3.79A14.17,14.17,0,0,1,262.46,383.52Zm5.35.05a8.34,8.34,0,0,0,2,4.54,5.61,5.61,0,0,0,4.47,1.9,6,6,0,0,0,4.44-1.67,7.73,7.73,0,0,0,2-4.77,13.12,13.12,0,0,0,0-3.07,8.09,8.09,0,0,0-2-4.48,6.28,6.28,0,0,0-8.9,0,8,8,0,0,0-2,4.48A13.12,13.12,0,0,0,267.81,383.57Z" transform="translate(-65.68 -5)" style="fill:#e32c2c"/><path d="M308.12,98.25h-5.34c.52-3.42.93-6.83,1.13-10.24l41.54-44.58-3.09-5.83-45.85,7.11a67.54,67.54,0,0,0-26-30C252,3.33,228.89,1.89,205.5,10.7c-23.08,8.69-44,26.17-58.09,49.76a153.51,153.51,0,0,0-7.61,14.47H69.17l-3.49,3.49V234.93l3.49,3.49h36.29l-21.6,27L87.65,271l76-24.18a46,46,0,0,0,33.87,14.89h40.14l78.27,37.1,4.88-4-8.28-33.31a46.26,46.26,0,0,0,41.78-46v-71A46.24,46.24,0,0,0,308.12,98.25ZM153.36,64.12c13.58-22.09,33-38.74,54.6-46.88A77.65,77.65,0,0,1,235.3,12a59.66,59.66,0,0,1,31.59,8.7,61,61,0,0,1,24.26,29.2L294.91,52l38.55-6L297.94,84.18,297,86.4a103.9,103.9,0,0,1-1.29,11.85h-36V78.42l-3.49-3.49H147.39C149.22,71.25,151.2,67.63,153.36,64.12Zm141,41.11a121,121,0,0,1-15,36.38,123,123,0,0,1-19.72,24.3V105.23ZM144.14,81.91H252.68V98.23H197.51a46.24,46.24,0,0,0-46.19,46.19v36.44c-10.49-10.66-16.67-26.17-17.64-44.93C132.79,118.57,136.53,99.65,144.14,81.91Zm34.28,74.39V140.54h18.9V121.65h15.73v18.89H232V156.3h-18.9v18.87H197.32V156.3ZM96.52,260.8l18.94-23.69-2.73-5.68H72.67V81.91h64.12c-7.55,18.71-11.23,38.11-10.08,54.38,1.64,23.26,10,42.15,24.61,54h0l0,0v25.17A45.92,45.92,0,0,0,159,240.92Zm61.8-45.33V195.09a64.69,64.69,0,0,0,32.86,8.46c17.93,0,37.37-6.25,55.35-18.21.76-.5,1.49-1,2.24-1.54.57-.4,1.14-.78,1.71-1.19.74-.53,1.47-1.08,2.2-1.63v50.45h-63.3l-1.06.17L166,238.7A39,39,0,0,1,158.32,215.47Zm189,0a39.25,39.25,0,0,1-39.21,39.21L304.74,259l7.53,30.28L240,255l-1.49-.34H197.53a39,39,0,0,1-26.38-10.29l18.78-6h66.24l3.49-3.49V175.35a130.19,130.19,0,0,0,25.67-30.08,127.65,127.65,0,0,0,16.17-40h6.62a39.25,39.25,0,0,1,39.21,39.21Z" transform="translate(-65.68 -5)" style="fill:#e32c2c"/></svg>