<?xml version="1.0" encoding="utf-8"?>
<!-- Generator: Adobe Illustrator 26.2.1, SVG Export Plug-In . SVG Version: 6.00 Build 0)  -->
<svg version="1.1" id="Calque_1" xmlns="http://www.w3.org/2000/svg" xmlns:xlink="http://www.w3.org/1999/xlink" x="0px" y="0px"
	 viewBox="0 0 405 405" style="enable-background:new 0 0 405 405;" xml:space="preserve" width="405" height="405">
<style type="text/css">
	.st0{fill:#E32C2C;}
</style>
<path class="st0" d="M58.3,354.5v-38c0-0.6,0.6-1.1,1.2-1.1h12c1.7,0,3.3,0.3,4.8,1c1.5,0.7,2.8,1.6,3.9,2.8c1.1,1.2,2,2.6,2.7,4.1
	c0.7,1.5,1.2,3.2,1.3,4.9c0.6,4.9,0.6,9.9,0,14.8c-0.2,1.7-0.6,3.3-1.3,4.9c-0.7,1.5-1.6,2.9-2.7,4.1c-1.1,1.2-2.4,2.1-3.9,2.8
	c-1.5,0.7-3.2,1-4.8,1h-12C58.9,355.6,58.4,355.1,58.3,354.5L58.3,354.5z M66.4,347c0,0.3,0.2,0.5,0.4,0.6c0,0,0.1,0,0.1,0h4.6
	c1.2,0,2.4-0.5,3.3-1.4c0.8-0.9,1.3-2.1,1.5-3.3c0.6-4.9,0.6-9.9,0-14.8c-0.1-1.2-0.6-2.4-1.5-3.3c-0.8-0.9-2-1.4-3.3-1.3h-4.6
	c-0.4,0-0.6,0.2-0.6,0.6L66.4,347z"/>
<path class="st0" d="M91.1,354.5v-38c0-0.3,0.1-0.6,0.3-0.8c0.2-0.2,0.5-0.3,0.8-0.4h20.9c0.3,0,0.6,0.1,0.8,0.4
	c0.2,0.2,0.3,0.5,0.3,0.8v5.8c0,0.3-0.1,0.6-0.3,0.8c-0.2,0.2-0.5,0.4-0.8,0.4H99.8c-0.4,0-0.6,0.2-0.6,0.6v6.9
	c0,0.3,0.2,0.5,0.4,0.6c0,0,0.1,0,0.1,0h12.9c0.3,0,0.6,0.1,0.8,0.3c0.2,0.2,0.4,0.5,0.4,0.8v5.8c0,0.3-0.1,0.6-0.3,0.8
	c-0.2,0.2-0.5,0.4-0.8,0.4H99.8c-0.3,0-0.5,0.1-0.6,0.4c0,0.1,0,0.1,0,0.2v6.9c0,0.3,0.1,0.5,0.4,0.6c0.1,0,0.1,0,0.2,0h13.7
	c0.6,0,1.1,0.5,1.2,1.1v5.8c0,0.6-0.5,1.1-1.2,1.1H92.3c-0.3,0-0.6-0.1-0.8-0.4C91.3,355.1,91.1,354.8,91.1,354.5z"/>
<path class="st0" d="M120.6,354.5v-38c0-0.3,0.1-0.6,0.4-0.8c0.2-0.2,0.5-0.3,0.8-0.4h8.5c0.6,0,1.1,0.4,1.2,1l5.9,25.2
	c0,0.2,0.2,0.3,0.4,0.3c0.1,0,0.2-0.1,0.3-0.3l6.1-25.2c0.1-0.6,0.6-1,1.2-1h8.4c0.6,0,1.1,0.5,1.1,1.1v38c0,0.6-0.5,1.1-1.1,1.1h-5
	c-0.3,0-0.6-0.1-0.8-0.4c-0.2-0.2-0.3-0.5-0.4-0.8v-21.7c0-0.1-0.1-0.3-0.2-0.3c-0.1,0-0.2,0-0.3,0.2l-5.9,22c-0.1,0.6-0.6,1-1.2,1
	h-4.5c-0.6,0-1.2-0.4-1.2-1l-5.7-22c-0.1-0.2-0.2-0.3-0.3-0.2c-0.1,0-0.2,0.2-0.2,0.3v21.7c0,0.3-0.1,0.6-0.3,0.8
	c-0.2,0.2-0.5,0.4-0.8,0.4h-5.1c-0.3,0-0.6-0.1-0.8-0.4C120.7,355.1,120.6,354.8,120.6,354.5z"/>
<path class="st0" d="M161.3,339.7c-0.1-1.4-0.1-2.8-0.1-4.2s0-2.8,0.1-4.2s0.2-2.6,0.4-3.9c0.2-1.7,0.6-3.3,1.3-4.9
	c0.7-1.5,1.6-2.8,2.8-4c1.2-1.2,2.6-2.1,4.1-2.8c1.7-0.7,3.5-1,5.4-1c1.8,0,3.7,0.3,5.4,1c1.5,0.6,2.9,1.6,4.1,2.8
	c1.2,1.2,2.1,2.5,2.8,4c0.7,1.5,1.2,3.2,1.4,4.9c0.1,1.2,0.2,2.5,0.3,3.9s0.1,2.8,0.1,4.2s0,2.8-0.1,4.2c0,1.3-0.2,2.6-0.3,3.9
	c-0.2,1.7-0.6,3.3-1.4,4.9c-0.7,1.5-1.6,2.8-2.8,4c-1.2,1.2-2.6,2.1-4.1,2.8c-1.7,0.7-3.5,1-5.4,1c-1.8,0-3.7-0.3-5.4-1
	c-1.5-0.6-2.9-1.6-4.1-2.8c-1.2-1.2-2.1-2.5-2.8-4c-0.7-1.5-1.2-3.2-1.3-4.9C161.5,342.4,161.4,341.1,161.3,339.7z M169.4,331.3
	c-0.1,1.4-0.1,2.8-0.1,4.2s0,2.8,0.1,4.2s0.2,2.7,0.3,3.9c0.1,1.2,0.7,2.4,1.6,3.3c1.1,1,2.5,1.5,4,1.4c1.5,0.1,2.9-0.4,4-1.4
	c0.9-0.9,1.5-2,1.6-3.3c0.1-1.2,0.2-2.5,0.3-3.9s0.1-2.8,0.1-4.2s0-2.8-0.1-4.2s-0.1-2.7-0.3-3.9c-0.1-1.2-0.7-2.4-1.6-3.2
	c-1.1-1-2.5-1.4-4-1.3c-1.5-0.1-2.9,0.4-4,1.4c-0.9,0.9-1.4,2-1.6,3.2C169.5,328.7,169.4,330,169.4,331.3L169.4,331.3z"/>
<path class="st0" d="M194.8,339.7c-0.1-1.4-0.1-2.8-0.1-4.2s0-2.8,0.1-4.2s0.2-2.6,0.4-3.9c0.2-1.7,0.6-3.3,1.4-4.9
	c0.7-1.5,1.6-2.8,2.8-4c1.2-1.2,2.6-2.1,4.1-2.8c1.7-0.7,3.5-1,5.4-1c1.9,0,3.7,0.3,5.5,1c1.6,0.6,3.1,1.5,4.3,2.7
	c1.2,1.2,2.2,2.6,2.8,4.1c0.7,1.7,1,3.5,1,5.3v0.1c0,0.3-0.1,0.6-0.3,0.8c-0.2,0.2-0.5,0.4-0.8,0.4h-5.8c-0.6,0-1.1-0.5-1.2-1.2
	v-0.1c0-0.6-0.1-1.2-0.4-1.8c-0.3-0.6-0.6-1.2-1.1-1.6c-0.5-0.5-1.1-0.9-1.8-1.2c-0.8-0.3-1.6-0.5-2.4-0.5c-1.5-0.1-2.9,0.4-4,1.4
	c-0.9,0.9-1.4,2-1.6,3.2c-0.2,1.2-0.3,2.5-0.3,3.9s-0.1,2.8-0.1,4.2s0,2.8,0.1,4.2s0.2,2.7,0.3,3.9c0.1,1.2,0.7,2.4,1.6,3.3
	c1.1,1,2.5,1.5,4,1.4c0.8,0,1.6-0.1,2.3-0.4c0.7-0.3,1.3-0.7,1.8-1.1c0.5-0.5,0.9-1,1.1-1.6c0.3-0.6,0.4-1.2,0.4-1.8v0
	c0-0.3,0.1-0.6,0.3-0.8c0.2-0.2,0.5-0.4,0.8-0.4h5.8c0.3,0,0.6,0.1,0.8,0.3c0.2,0.2,0.4,0.5,0.4,0.8v0.1c0,1.8-0.3,3.6-1,5.3
	c-0.6,1.6-1.6,3-2.8,4.1c-1.3,1.2-2.7,2.1-4.3,2.7c-1.8,0.7-3.6,1-5.5,1c-1.8,0-3.7-0.3-5.4-1c-1.5-0.6-2.9-1.6-4.1-2.8
	c-1.2-1.2-2.1-2.5-2.8-4c-0.7-1.5-1.2-3.2-1.4-4.9C195,342.4,194.8,341.1,194.8,339.7z"/>
<path class="st0" d="M228.5,354.5v-38c0-0.6,0.5-1.1,1.1-1.1h12.7c1.6,0,3.2,0.3,4.7,1c1.4,0.6,2.7,1.5,3.8,2.6
	c1.1,1.1,2,2.4,2.6,3.9c0.7,1.5,1,3.1,1,4.7c0.1,2-0.4,4-1.5,5.7c-1.2,1.8-2.7,3.3-4.5,4.5c-0.4,0.3-0.6,0.6-0.6,0.9
	c0,0.4,0.1,0.7,0.3,1l6.2,14.4c0.2,0.4,0.2,0.8,0,1.2c-0.2,0.4-0.7,0.6-1.1,0.5h-5.9c-0.4,0-0.8-0.1-1.1-0.3
	c-0.3-0.2-0.5-0.5-0.6-0.8l-5.9-14.2c-0.1-0.2-0.2-0.3-0.3-0.5c-0.2-0.2-0.4-0.3-0.7-0.3h-1.5c-0.3,0-0.5,0.1-0.6,0.4
	c0,0.1,0,0.1,0,0.2v14.4c0,0.3-0.1,0.6-0.4,0.8c-0.2,0.2-0.5,0.4-0.8,0.4h-5.8C229,355.6,228.5,355.1,228.5,354.5z M236.6,330.9
	c0,0.3,0.2,0.5,0.4,0.6c0,0,0.1,0,0.1,0h5.2c1.1,0,2.1-0.4,2.8-1.2c0.8-0.8,1.2-1.8,1.2-2.9c0-2.2-1.8-4-4-4h-5.2
	c-0.4,0-0.6,0.2-0.6,0.6L236.6,330.9z"/>
<path class="st0" d="M257.2,354.5l10.3-38.2c0.1-0.5,0.6-0.9,1.1-0.9h7.7c0.5-0.1,1,0.3,1.1,0.9l10.2,38.2c0,0.1,0,0.2,0,0.2
	c0,0.2-0.1,0.4-0.2,0.5c-0.2,0.3-0.6,0.4-1,0.4h-6c-0.5,0-1-0.4-1.1-0.9l-1.8-5.9c-0.1-0.2-0.2-0.4-0.3-0.6
	c-0.1-0.2-0.4-0.3-0.6-0.2h-8.7c-0.5,0-0.8,0.3-0.9,0.8l-1.6,5.9c-0.1,0.5-0.6,0.9-1.1,0.9h-6c-0.4,0.1-0.8-0.1-1-0.4
	c-0.1-0.2-0.2-0.3-0.2-0.5C257.1,354.7,257.1,354.6,257.2,354.5z M269.2,339.3c0,0.1,0,0.2,0,0.2c0,0.3,0.2,0.4,0.5,0.4h5.3
	c0.3,0,0.5-0.1,0.5-0.4c0-0.1,0-0.2-0.1-0.2l-2.8-13.8c0-0.1-0.1-0.2-0.3-0.2h-0.1c-0.1,0-0.3,0.1-0.3,0.2L269.2,339.3z"/>
<path class="st0" d="M288.7,339.7c-0.1-1.4-0.1-2.8-0.1-4.2s0-2.8,0.1-4.2s0.2-2.6,0.4-3.9c0.2-1.7,0.6-3.3,1.3-4.9
	c0.7-1.5,1.6-2.8,2.8-4c1.2-1.2,2.6-2.1,4.1-2.8c1.7-0.7,3.5-1,5.4-1c1.9,0,3.8,0.3,5.5,1c1.6,0.6,3.1,1.5,4.3,2.7
	c1.2,1.2,2.2,2.6,2.9,4.1c0.7,1.7,1,3.5,1,5.3v0.1c0,0.6-0.5,1.1-1.2,1.1h-5.7c-0.3,0-0.6-0.1-0.8-0.4c-0.2-0.2-0.3-0.5-0.4-0.8
	v-0.1c0-0.6-0.1-1.2-0.4-1.8c-0.3-0.6-0.6-1.2-1.1-1.6c-0.5-0.5-1.1-0.9-1.8-1.2c-0.8-0.3-1.6-0.5-2.4-0.5c-1.5-0.1-2.9,0.4-4,1.4
	c-0.9,0.9-1.4,2-1.6,3.2c-0.1,1.2-0.3,2.5-0.3,3.9s-0.1,2.8-0.1,4.2s0,2.8,0.1,4.2s0.2,2.7,0.3,3.9c0.1,1.2,0.7,2.4,1.6,3.3
	c1.1,1,2.5,1.5,4,1.4c0.8,0,1.6-0.1,2.3-0.4c0.7-0.3,1.3-0.7,1.8-1.1c0.5-0.5,0.9-1,1.1-1.6c0.3-0.6,0.4-1.2,0.4-1.8v0
	c0-0.3,0.1-0.6,0.3-0.8c0.2-0.3,0.5-0.4,0.8-0.4h5.7c0.3,0,0.6,0.1,0.8,0.3c0.2,0.2,0.4,0.5,0.4,0.8v0.1c0,1.8-0.3,3.6-1,5.3
	c-0.6,1.6-1.6,3-2.9,4.1c-1.2,1.2-2.7,2.1-4.3,2.7c-1.8,0.7-3.6,1-5.5,1c-1.8,0-3.7-0.3-5.4-1c-1.5-0.6-2.9-1.6-4.1-2.8
	c-1.2-1.2-2.1-2.5-2.8-4c-0.7-1.5-1.2-3.2-1.3-4.9C288.9,342.4,288.8,341.1,288.7,339.7z"/>
<path class="st0" d="M317.6,317c-0.1-0.2-0.1-0.4-0.1-0.6c0-0.2,0.1-0.4,0.2-0.5c0.2-0.3,0.5-0.5,0.9-0.5h6.3c0.5,0,1,0.4,1.1,0.9
	l5.5,15.9c0.1,0.2,0.2,0.3,0.4,0.3s0.3-0.1,0.4-0.3l5.5-15.9c0.1-0.5,0.6-0.9,1.1-0.9h6.4c0.4,0,0.7,0.2,0.9,0.5
	c0.1,0.2,0.1,0.4,0.1,0.5c0,0.2-0.1,0.4-0.1,0.6l-10.2,25.6v11.9c0,0.3-0.1,0.6-0.4,0.8c-0.2,0.2-0.5,0.4-0.8,0.4h-5.8
	c-0.3,0-0.6-0.1-0.8-0.4c-0.2-0.2-0.4-0.5-0.4-0.8v-11.9L317.6,317z"/>
<path class="st0" d="M58.3,403.4v-38c0-0.6,0.6-1.1,1.2-1.1h12c1.7,0,3.3,0.3,4.8,1c1.5,0.7,2.8,1.6,3.9,2.8c1.1,1.2,2,2.6,2.7,4.1
	c0.7,1.5,1.2,3.2,1.4,4.9c0.6,4.9,0.6,9.9,0,14.8c-0.2,1.7-0.6,3.3-1.3,4.9c-0.7,1.5-1.6,2.9-2.7,4.1c-1.1,1.2-2.4,2.1-3.9,2.8
	c-1.5,0.7-3.2,1-4.8,1h-12C58.9,404.5,58.4,404,58.3,403.4L58.3,403.4z M66.4,395.9c0,0.3,0.2,0.5,0.4,0.6c0,0,0.1,0,0.1,0h4.6
	c1.2,0,2.4-0.5,3.3-1.4c0.8-0.9,1.3-2.1,1.5-3.3c0.6-4.9,0.6-9.9,0-14.8c-0.1-1.2-0.6-2.4-1.5-3.3c-0.8-0.9-2-1.4-3.3-1.4h-4.6
	c-0.3,0-0.5,0.2-0.6,0.4c0,0.1,0,0.1,0,0.2L66.4,395.9z"/>
<path class="st0" d="M86.5,403.4l10.3-38.2c0.1-0.5,0.6-0.9,1.1-0.9h7.7c0.5-0.1,1,0.3,1.1,0.9l10.2,38.2c0,0.1,0,0.1,0,0.2
	c0,0.2-0.1,0.4-0.2,0.5c-0.2,0.3-0.6,0.4-1,0.4h-6c-0.5,0-1-0.4-1.1-0.9l-1.8-5.9c-0.1-0.2-0.2-0.4-0.3-0.6
	c-0.1-0.2-0.4-0.3-0.6-0.3h-8.7c-0.5,0-0.8,0.3-0.9,0.9l-1.6,5.9c-0.1,0.5-0.6,0.9-1.1,0.9h-6c-0.4,0.1-0.8-0.1-1-0.4
	c-0.1-0.2-0.2-0.3-0.2-0.5C86.5,403.5,86.5,403.5,86.5,403.4z M98.6,388.2c0,0.1,0,0.2,0,0.2c0,0.3,0.2,0.4,0.5,0.4h5.3
	c0.3,0,0.5-0.1,0.5-0.4c0-0.1,0-0.2,0-0.2l-2.8-13.8c0-0.1-0.1-0.2-0.3-0.2h-0.1c-0.1,0-0.3,0.1-0.3,0.2L98.6,388.2z"/>
<path class="st0" d="M114.8,365.9c-0.1-0.2-0.1-0.4-0.1-0.6c0-0.2,0.1-0.4,0.2-0.5c0.2-0.3,0.5-0.5,0.9-0.5h6.3c0.5,0,1,0.4,1.1,0.9
	l5.5,15.9c0,0.2,0.2,0.3,0.4,0.3c0.2,0,0.3-0.1,0.4-0.3l5.5-15.9c0.1-0.5,0.6-0.9,1.1-0.9h6.4c0.4,0,0.7,0.2,0.9,0.5
	c0.1,0.2,0.2,0.3,0.1,0.5c0,0.2-0.1,0.4-0.1,0.6l-10.2,25.6v11.8c0,0.3-0.1,0.6-0.4,0.8c-0.2,0.2-0.5,0.4-0.8,0.4h-5.8
	c-0.3,0-0.6-0.1-0.8-0.4c-0.2-0.2-0.3-0.5-0.4-0.8v-11.9L114.8,365.9z"/>
<path class="st0" d="M159,378.5V375c-0.1-0.7,0.2-1.4,0.6-1.9l8.7-8.3c0.3-0.3,0.7-0.5,1.1-0.5h3.6c0.6,0,1.1,0.5,1.1,1.1v38
	c0,0.3-0.1,0.6-0.3,0.8c-0.2,0.2-0.5,0.4-0.8,0.4h-3c-0.3,0-0.6-0.1-0.8-0.4c-0.2-0.2-0.4-0.5-0.4-0.8v-31.6c0-0.2-0.1-0.3-0.2-0.3
	c-0.1,0-0.2,0-0.3,0.1l-8.1,7.4c-0.2,0.2-0.5,0.3-0.8,0.2C159.2,379.1,159,378.8,159,378.5z"/>
<path class="st0" d="M180.8,394.5c0-0.3,0.1-0.7,0.4-0.9c0.2-0.2,0.5-0.3,0.8-0.3h3c0.3,0,0.6,0.1,0.8,0.3c0.2,0.2,0.4,0.5,0.4,0.8
	c0,0.8,0.2,1.5,0.6,2.2c0.4,0.6,0.8,1.2,1.4,1.7c0.6,0.5,1.3,0.8,2.1,1.1c0.8,0.3,1.6,0.4,2.4,0.4c2,0.1,3.9-0.8,5-2.4
	c1.2-1.8,1.8-3.9,1.8-6c0.1-2.2-0.5-4.3-1.8-6.1c-1.1-1.6-3-2.5-4.9-2.4c-1.1,0-2.2,0.3-3.1,1c-0.9,0.6-1.6,1.5-2,2.5
	c-0.2,0.4-0.6,0.7-1.1,0.6h-3.1c-0.3,0-0.6-0.1-0.8-0.3c-0.2-0.2-0.4-0.5-0.4-0.8v-20.5c0-0.6,0.5-1.1,1.1-1.1h18.6
	c0.6,0,1.1,0.5,1.2,1.1v2.9c0,0.3-0.1,0.6-0.4,0.8c-0.2,0.2-0.5,0.4-0.8,0.4h-14.3c-0.3,0-0.6,0.2-0.6,0.5c0,0,0,0.1,0,0.1v8.6
	c0,0.3,0.1,0.5,0.3,0.7c0.2,0.2,0.5,0.1,1-0.2c0.6-0.5,1.4-0.8,2.2-1c0.7-0.2,1.4-0.3,2.2-0.3c1.7,0,3.3,0.4,4.9,1.1
	c1.4,0.7,2.7,1.7,3.7,3c1.1,1.3,1.9,2.8,2.4,4.4c0.6,1.7,0.8,3.4,0.8,5.2c0,1.8-0.3,3.5-0.8,5.2c-0.5,1.6-1.3,3.1-2.3,4.4
	c-1,1.3-2.3,2.3-3.7,3c-1.5,0.7-3.2,1.1-4.9,1.1c-1.5,0-3-0.3-4.4-0.8c-1.4-0.5-2.6-1.3-3.8-2.2c-1.1-0.9-2-2.1-2.6-3.3
	C181.1,397.5,180.8,396,180.8,394.5z"/>
<path class="st0" d="M211.1,403.4v-5.2c0-0.3,0.1-0.6,0.3-0.8c0.2-0.2,0.5-0.4,0.8-0.4h5.2c0.6,0,1.1,0.5,1.1,1.1v5.2
	c0,0.3-0.1,0.6-0.4,0.8c-0.2,0.2-0.5,0.4-0.8,0.4h-5.2c-0.3,0-0.6-0.1-0.8-0.4C211.2,404,211.1,403.7,211.1,403.4z"/>
<path class="st0" d="M225.2,389c-0.1-1.5-0.1-3.1-0.1-4.7s0-3.1,0.1-4.6s0.2-2.8,0.3-4c0.2-1.6,0.6-3.1,1.2-4.5
	c0.6-1.4,1.4-2.7,2.4-3.8c1-1.1,2.3-2,3.7-2.6c1.6-0.7,3.3-1,5-1c3.1-0.1,6.2,1,8.4,3.2c2.3,2.4,3.7,5.5,3.9,8.8
	c0.1,1.1,0.3,2.5,0.3,4s0.1,3.1,0.1,4.6s0,3.1-0.1,4.6s-0.2,2.9-0.3,4c-0.2,1.6-0.6,3.1-1.2,4.5c-0.6,1.4-1.4,2.7-2.4,3.8
	c-1.1,1.1-2.3,2-3.7,2.6c-1.6,0.7-3.3,1-5,1c-3.1,0.1-6.2-1-8.4-3.2c-2.3-2.4-3.6-5.5-3.9-8.8C225.4,391.9,225.3,390.6,225.2,389z
	 M230.4,379.9c-0.1,1.5-0.1,3-0.1,4.6s0,3.1,0.1,4.6s0.2,2.8,0.3,4c0.1,0.9,0.3,1.7,0.7,2.5c0.3,0.8,0.8,1.6,1.4,2.2
	c0.6,0.6,1.3,1.2,2.2,1.5c0.9,0.4,2,0.6,3,0.6c1.8,0.1,3.5-0.6,4.8-1.8c1.3-1.3,2.2-3.1,2.4-5c0.1-1.2,0.3-2.5,0.4-4s0.1-3,0.1-4.6
	s0-3.1-0.1-4.6s-0.2-2.9-0.4-4.1c-0.1-0.9-0.3-1.7-0.6-2.5c-0.3-0.8-0.8-1.5-1.3-2.2c-0.6-0.7-1.3-1.2-2.2-1.5c-0.9-0.4-2-0.6-3-0.6
	c-1.8,0-3.5,0.6-4.8,1.8c-1.4,1.3-2.2,3.1-2.4,5C230.6,377,230.5,378.4,230.4,379.9L230.4,379.9z"/>
<path class="st0" d="M255,378.5c-0.1-1-0.1-2,0-3c0.1-1.6,0.4-3.1,1.1-4.6c1.2-2.8,3.4-5,6.2-6.2c1.4-0.6,3-0.9,4.5-0.9
	c1.6,0,3.1,0.3,4.6,0.9c1.4,0.6,2.6,1.5,3.7,2.6c1.1,1.1,1.9,2.4,2.6,3.8c0.7,1.5,1.1,3.1,1.3,4.7c0.1,1.1,0.2,2.5,0.3,4
	s0.1,3.1,0.1,4.6s0,3.1-0.1,4.6s-0.2,2.8-0.3,4c-0.2,1.6-0.6,3.2-1.2,4.7c-0.6,1.4-1.4,2.7-2.5,3.8c-1,1.1-2.3,1.9-3.6,2.5
	c-1.4,0.6-3,1-4.5,0.9c-1.5,0-3-0.3-4.4-0.9c-1.4-0.5-2.6-1.3-3.7-2.3c-1.1-1-1.9-2.2-2.6-3.5c-0.7-1.3-1-2.8-1-4.3
	c0-0.3,0.1-0.6,0.4-0.8c0.2-0.2,0.5-0.3,0.8-0.4h3c0.6,0,1.1,0.5,1.2,1.1c0,0.7,0.2,1.5,0.5,2.1c0.4,0.7,0.9,1.3,1.4,1.9
	c0.6,0.6,1.3,1,2,1.3c0.7,0.3,1.5,0.5,2.4,0.5c1.7,0.1,3.4-0.6,4.6-1.8c1.2-1.4,2-3.1,2.3-4.9c0.3-1.6,0.4-3.2,0.4-4.8
	c0-0.2-0.1-0.4-0.3-0.5c-0.3-0.1-0.5,0-0.7,0.2c-0.8,0.6-1.7,1.1-2.6,1.5c-1.2,0.6-2.6,0.8-3.9,0.8c-3.1,0-6-1.2-8.2-3.4
	c-1.1-1.1-1.9-2.4-2.5-3.8C255.4,381.7,255,380.1,255,378.5z M260.3,378.6c0.2,1.7,0.9,3.3,2,4.5c1.1,1.3,2.8,2,4.5,1.9
	c1.6,0.1,3.3-0.5,4.4-1.7c1.2-1.3,1.9-3,2-4.8c0.1-1,0.1-2.1,0-3.1c-0.2-1.7-0.9-3.2-2-4.5c-2.4-2.5-6.4-2.5-8.9,0c0,0,0,0,0,0
	c-1.1,1.2-1.8,2.8-2,4.5C260.2,376.5,260.2,377.5,260.3,378.6L260.3,378.6z"/>
<path class="st0" d="M300.6,93.2h-5.3c0.5-3.4,0.9-6.8,1.1-10.2l41.5-44.6l-3.1-5.8L289,39.7c-5.5-12.4-14.5-22.8-26-30
	c-18.5-11.4-41.6-12.8-65-4c-23.1,8.7-44,26.2-58.1,49.8c-2.8,4.7-5.3,9.5-7.6,14.5H61.7l-3.5,3.5v156.5l3.5,3.5H98l-21.6,27
	l3.8,5.6l76-24.2c8.7,9.5,21,14.9,33.9,14.9h40.1l78.3,37.1l4.9-4l-8.3-33.3c23.7-2.3,41.8-22.2,41.8-46v-71
	C346.8,114,326.1,93.3,300.6,93.2z M145.9,59.1c13.6-22.1,33-38.7,54.6-46.9c8.7-3.4,18-5.2,27.3-5.2c11.1-0.1,22.1,2.9,31.6,8.7
	c11,6.9,19.5,17.1,24.3,29.2l3.8,2.1l38.5-6l-35.5,38.2l-0.9,2.2c-0.2,4-0.6,7.9-1.3,11.8h-36V73.4l-3.5-3.5H139.9
	C141.7,66.2,143.7,62.6,145.9,59.1z M286.9,100.2c-3,12.9-8,25.2-15,36.4c-5.5,8.9-12.1,17.1-19.7,24.3v-60.7H286.9z M136.6,76.9
	h108.5v16.3H190c-25.5,0-46.2,20.7-46.2,46.2v36.4c-10.5-10.7-16.7-26.2-17.6-44.9C125.3,113.6,129,94.7,136.6,76.9z M170.9,151.3
	v-15.8h18.9v-18.9h15.7v18.9h19v15.8h-18.9v18.9h-15.8v-18.9H170.9z M89,255.8l18.9-23.7l-2.7-5.7H65.2V76.9h64.1
	c-7.6,18.7-11.2,38.1-10.1,54.4c1.6,23.3,10,42.1,24.6,54l0,0l0,0v25.2c0,9.1,2.7,17.9,7.7,25.5L89,255.8z M150.8,210.5v-20.4
	c10,5.7,21.3,8.6,32.9,8.5c17.9,0,37.4-6.2,55.4-18.2c0.8-0.5,1.5-1,2.2-1.5c0.6-0.4,1.1-0.8,1.7-1.2c0.7-0.5,1.5-1.1,2.2-1.6v50.4
	h-63.3l-1.1,0.2l-22.3,7.1C153.5,227,150.8,218.8,150.8,210.5L150.8,210.5z M339.8,210.5c0,21.6-17.6,39.2-39.2,39.2l-3.4,4.3
	l7.5,30.3L232.5,250l-1.5-0.3h-41c-9.8,0-19.2-3.7-26.4-10.3l18.8-6h66.2l3.5-3.5v-59.5c10-8.7,18.7-18.8,25.7-30.1
	c7.6-12.3,13.1-25.8,16.2-40h6.6c21.6,0,39.2,17.6,39.2,39.2L339.8,210.5z"/>
</svg>
